Coordinates
version=1
nRows=8
nColumns=63
inDegrees=yes

Units are S.I. units (second, meters, Newtons, ...)
If the header above contains a line with 'inDegrees', this indicates whether rotational values are in degrees (yes) or radians (no).

endheader
time	pelvis_tilt	pelvis_list	pelvis_rotation	pelvis_tx	pelvis_ty	pelvis_tz	hip_flexion_r	hip_adduction_r	hip_rotation_r	knee_angle_r	knee_angle_r_beta	ankle_angle_r	subtalar_angle_r	mtp_angle_r	hip_flexion_l	hip_adduction_l	hip_rotation_l	knee_angle_l	knee_angle_l_beta	ankle_angle_l	subtalar_angle_l	mtp_angle_l	L5_S1_Flex_Ext	L5_S1_Lat_Bending	L5_S1_axial_rotation	L4_L5_Flex_Ext	L4_L5_Lat_Bending	L4_L5_axial_rotation	L3_L4_Flex_Ext	L3_L4_Lat_Bending	L3_L4_axial_rotation	L2_L3_Flex_Ext	L2_L3_Lat_Bending	L2_L3_axial_rotation	L1_L2_Flex_Ext	L1_L2_Lat_Bending	L1_L2_axial_rotation	L1_T12_Flex_Ext	L1_T12_Lat_Bending	L1_T12_axial_rotation	Abs_r3	Abs_r2	Abs_r1	Abs_t1	Abs_t2	neck_flexion	neck_bending	neck_rotation	arm_flex_r	arm_add_r	arm_rot_r	elbow_flex_r	pro_sup_r	wrist_flex_r	wrist_dev_r	arm_flex_l	arm_add_l	arm_rot_l	elbow_flex_l	pro_sup_l	wrist_flex_l	wrist_dev_l
0.000000	6.208118	-3.588435	95.345219	0.137124	0.873451	0.436327	7.153867	-0.740379	-25.151042	19.173311	0.334637	36.336883	18.527070	0.000000	14.564413	-5.254881	-5.679489	26.452247	0.461679	41.239924	4.990689	0.000000	-0.146943	0.193729	2.184254	-0.272888	0.257660	2.320770	-0.241413	0.471033	2.320770	-0.167941	0.471033	1.911223	-0.136451	0.395052	1.774707	-0.083963	0.300086	1.638191	-1.049599	2.191502	12.148167	0.000000	0.000000	20.965420	-1.093954	-12.654781	14.334129	-0.455719	78.257380	24.663807	39.663681	-3.913308	-7.529869	24.235375	1.610797	92.005429	31.296912	33.142782	-3.118480	2.708911
0.016667	5.709881	-3.706495	95.038151	0.137021	0.872728	0.435138	7.124037	-1.086175	-23.894284	18.696884	0.326322	37.203319	18.580889	0.000000	14.191497	-4.572360	-5.156060	26.070941	0.455024	40.061066	2.833699	0.000000	-0.133439	0.140231	2.230483	-0.247809	0.186507	2.369888	-0.219226	0.340957	2.369888	-0.152507	0.340957	1.951673	-0.123911	0.285959	1.812267	-0.076247	0.217217	1.672862	-0.953139	1.586319	12.405277	0.000000	0.000000	21.506270	-1.118109	-12.565035	14.546173	-0.321065	79.434017	24.822769	37.979364	-3.387671	-7.061394	22.997970	1.257666	87.406578	32.037729	35.286388	-4.011578	4.029319
0.033333	5.337938	-3.787073	94.826924	0.136942	0.872186	0.434334	7.102956	-1.344774	-22.949339	18.333417	0.319978	37.887544	18.618908	0.000000	13.929492	-4.074387	-4.793283	25.833121	0.450873	39.127779	1.170743	0.000000	-0.125229	0.099231	2.263716	-0.232563	0.131978	2.405199	-0.205739	0.241271	2.405199	-0.143124	0.241271	1.980752	-0.116288	0.202353	1.839270	-0.071556	0.153709	1.697787	-0.894498	1.122525	12.590111	0.000000	0.000000	21.862714	-1.110384	-12.551336	14.775416	-0.213157	80.599086	24.888876	36.067587	-2.906326	-6.740132	22.026557	1.024427	83.667313	32.571776	36.600792	-4.849260	5.243798
0.050000	5.077557	-3.834492	94.699781	0.136888	0.871806	0.433871	7.089779	-1.526951	-22.284127	18.072319	0.315421	38.406648	18.642802	0.000000	13.765595	-3.739620	-4.572221	25.721141	0.448919	38.415983	-0.048656	0.000000	-0.121701	0.069170	2.285220	-0.226012	0.091996	2.428046	-0.199943	0.168181	2.428046	-0.139093	0.168181	1.999568	-0.113012	0.141052	1.856741	-0.069540	0.107145	1.713915	-0.869301	0.782468	12.709708	0.000000	0.000000	22.054427	-1.072278	-12.605355	15.014987	-0.128847	81.721682	24.880248	34.011308	-2.469699	-6.545974	21.291658	0.889904	80.694705	32.932024	37.234971	-5.616474	6.353060
0.066667	4.914009	-3.853077	94.644963	0.136861	0.871571	0.433702	7.083663	-1.643484	-21.866571	17.903002	0.312466	38.777718	18.654250	0.000000	13.687005	-3.546720	-4.473935	25.717356	0.448853	37.901602	-0.874978	0.000000	-0.122243	0.048487	2.296260	-0.227018	0.064487	2.439776	-0.200834	0.117891	2.439776	-0.139712	0.117891	2.009228	-0.113515	0.098874	1.865711	-0.069850	0.075106	1.722195	-0.873172	0.548492	12.771109	0.000000	0.000000	22.101085	-1.005288	-12.718764	15.258017	-0.064987	82.770897	24.814999	31.893489	-2.078216	-6.458813	20.763792	0.832920	78.395826	33.151446	37.337901	-6.298164	7.357819
0.083333	4.832563	-3.847151	94.650711	0.136862	0.871460	0.433781	7.083763	-1.705148	-21.664591	17.814876	0.310928	39.017843	18.654927	0.000000	13.680920	-3.474345	-4.479487	25.804121	0.450367	37.560556	-1.358702	0.000000	-0.126242	0.035620	2.298102	-0.234444	0.047375	2.441733	-0.207403	0.086607	2.441733	-0.144282	0.086607	2.010839	-0.117228	0.072637	1.867208	-0.072135	0.055176	1.723576	-0.901733	0.402945	12.781354	0.000000	0.000000	22.022362	-0.910913	-12.883236	15.497639	-0.018426	83.715824	24.711249	29.797090	-1.732304	-6.458540	20.413480	0.832300	76.677748	33.263015	37.058558	-6.879278	8.258789
0.100000	4.818487	-3.821037	94.705267	0.136893	0.871456	0.434064	7.089233	-1.722720	-21.646107	17.797352	0.310622	39.144112	18.646509	0.000000	13.734538	-3.501155	-4.569940	25.963791	0.453154	37.368766	-1.550307	0.000000	-0.133084	0.029010	2.292012	-0.247151	0.038584	2.435262	-0.218644	0.070536	2.435262	-0.152102	0.070536	2.005510	-0.123582	0.059158	1.862259	-0.076044	0.044937	1.719009	-0.950608	0.328171	12.747481	0.000000	0.000000	21.837933	-0.790650	-13.090442	15.726981	0.013984	84.525556	24.587114	27.805072	-1.432388	-6.525049	20.211240	0.866866	75.447541	33.299701	36.545920	-7.344761	9.056683
0.116667	4.857052	-3.779061	94.796872	0.136954	0.871540	0.434505	7.099230	-1.706976	-21.779041	17.839841	0.311364	39.173613	18.630673	0.000000	13.835057	-3.605810	-4.726355	26.178722	0.456905	37.302155	-1.500271	0.000000	-0.142158	0.027096	2.279255	-0.264002	0.036038	2.421708	-0.233552	0.065881	2.421708	-0.162473	0.065881	1.994348	-0.132008	0.055254	1.851895	-0.081229	0.041972	1.709441	-1.015421	0.306516	12.676532	0.000000	0.000000	21.567475	-0.645998	-13.332053	15.939177	0.035392	85.169186	24.460711	26.000393	-1.178896	-6.638231	20.127595	0.915443	74.612277	33.294478	35.948962	-7.679559	9.752215
